<?xml version="1.0" standalone="no"?>
<!DOCTYPE svg PUBLIC "-//W3C//DTD SVG 20010904//EN"
 "http://www.w3.org/TR/2001/REC-SVG-20010904/DTD/svg10.dtd">
<svg version="1.0" xmlns="http://www.w3.org/2000/svg"
 width="512.000000pt" height="512.000000pt" viewBox="0 0 512.000000 512.000000"
 preserveAspectRatio="xMidYMid meet">
<metadata>
Created by potrace 1.11, written by Peter Selinger 2001-2013
</metadata>
<g transform="translate(0.000000,512.000000) scale(0.100000,-0.100000)"
fill="#000000" stroke="none">
<path d="M2248 4844 c-2 -2 -22 -6 -44 -9 -21 -4 -47 -8 -56 -11 -10 -3 -30
-7 -45 -10 -137 -23 -396 -118 -573 -210 -443 -231 -765 -555 -1015 -1020 -44
-82 -137 -316 -160 -404 -3 -8 -9 -33 -15 -55 -6 -22 -12 -44 -14 -50 -10 -37
-33 -156 -41 -220 -20 -147 -23 -202 -19 -385 5 -245 7 -293 14 -300 3 -3 17
-66 32 -140 138 -687 597 -1287 1231 -1609 184 -94 284 -133 482 -186 115 -31
177 -42 360 -64 72 -9 446 -7 500 3 17 3 66 10 110 16 225 32 516 132 736 251
292 159 508 343 754 640 97 117 331 541 318 575 -5 12 -91 48 -533 219 -96 37
-188 73 -205 80 -141 61 -472 182 -482 177 -6 -4 -30 -43 -52 -87 -22 -44 -61
-107 -86 -140 -45 -60 -163 -185 -175 -185 -3 0 -61 69 -127 153 -67 83 -131
163 -142 177 -11 14 -74 92 -139 175 l-119 150 26 39 c30 46 37 122 15 175 -8
19 -13 35 -12 37 2 1 62 48 133 103 72 56 144 113 162 127 18 14 48 38 67 52
194 147 245 189 243 200 -1 7 -5 14 -8 15 -5 2 -164 -118 -299 -226 -30 -24
-146 -114 -232 -180 l-88 -68 -42 25 c-50 28 -126 32 -172 9 -15 -8 -32 -11
-36 -6 -9 10 -213 270 -266 339 -21 28 -86 111 -143 184 -119 151 -120 129 1
202 86 51 183 90 280 113 42 10 79 24 82 31 2 6 0 45 -5 85 -5 41 -11 97 -14
124 -3 28 -8 61 -10 75 -2 14 -7 50 -10 80 -4 30 -8 66 -10 80 -2 14 -6 48
-10 75 -3 28 -10 86 -16 130 -5 44 -12 96 -14 115 -3 19 -7 60 -10 90 -3 30
-8 62 -10 70 -2 8 -6 46 -10 83 -3 37 -8 78 -11 90 -4 20 -14 109 -19 167 -1
17 -10 26 -28 31 -14 4 -27 5 -29 3z m-173 -1675 c61 -78 139 -178 175 -223
36 -46 76 -98 90 -116 14 -18 30 -38 35 -44 6 -6 32 -39 57 -72 44 -57 46 -64
35 -88 -7 -14 -15 -26 -19 -26 -14 0 -20 -109 -8 -145 14 -44 43 -15 -245
-247 -121 -97 -231 -186 -244 -197 -24 -21 -51 -28 -51 -13 0 25 -144 92 -200
92 -21 0 -28 9 -47 58 -30 76 -52 164 -62 248 -8 70 -6 228 4 274 3 14 8 41
11 60 17 103 104 295 179 395 44 59 163 185 174 185 3 0 56 -64 116 -141z
m435 -805 c50 -34 122 -42 172 -21 36 15 36 15 60 -15 12 -17 124 -158 247
-312 123 -155 230 -291 238 -302 13 -20 10 -24 -49 -62 -333 -217 -754 -224
-1094 -18 l-87 52 -1 79 c-1 64 -7 92 -29 139 l-27 59 27 23 c96 78 498 403
501 403 1 1 20 -11 42 -25z"/>
</g>
</svg>
